<?xml version="1.0" encoding="UTF-8"?>
<svg width="19px" height="15px" viewBox="0 0 19 15" version="1.1" xmlns="http://www.w3.org/2000/svg" xmlns:xlink="http://www.w3.org/1999/xlink">
    <!-- Generator: Sketch 46.2 (44496) - http://www.bohemiancoding.com/sketch -->
    <title>Fill 1</title>
    <desc>Created with Sketch.</desc>
    <defs></defs>
    <g id="Shark-Tank-desktop-v1" stroke="none" stroke-width="1" fill="none" fill-rule="evenodd">
        <g id="Desktop-View" transform="translate(-894.000000, -1587.000000)" fill="#FFFFFF">
            <g id="Group-8" transform="translate(0.000000, 1410.000000)">
                <g id="Group-2" transform="translate(894.000000, 177.000000)">
                    <path d="M19,1.77567086 C18.3009218,2.07684829 17.5496507,2.2804013 16.7611288,2.37194952 C17.5659827,1.90327125 18.1840265,1.16116357 18.4750832,0.276940111 C17.7219357,0.710848959 16.8876843,1.02600167 15.9997805,1.19586548 C15.2886792,0.45990152 14.2756099,0 13.1544716,0 C11.0016387,0 9.25627126,1.6954649 9.25627126,3.78669355 C9.25627126,4.08348261 9.29081166,4.37250763 9.35725155,4.64965028 C6.1175427,4.49173636 3.24526866,2.98416135 1.32268188,0.693160439 C0.987146567,1.25244174 0.794915688,1.90293368 0.794915688,2.59690428 C0.794915688,3.91064822 1.48315227,5.06971887 2.52909397,5.74876901 C1.89006182,5.7291226 1.28904495,5.5587862 0.763433191,5.27516226 C0.7631552,5.2909604 0.7631552,5.30682606 0.7631552,5.32275923 C0.7631552,7.15750434 2.10682541,8.68803392 3.89006913,9.03586314 C3.56294305,9.12241536 3.21858151,9.16866206 2.86303084,9.16866206 C2.61186583,9.16866206 2.36765061,9.14496485 2.12969019,9.10074355 C2.62569589,10.6052129 4.06527305,11.7000108 5.77102674,11.7305944 C4.43694722,12.746199 2.75614324,13.351592 0.929880391,13.351592 C0.615263909,13.351592 0.30495629,13.3337009 0,13.2987289 C1.72507407,14.3731378 3.77407733,15 5.97541973,15 C13.1453674,15 17.0661546,9.22982924 17.0661546,4.22580093 C17.0661546,4.06160826 17.0624017,3.89829326 17.0548959,3.73592345 C17.8164527,3.2020272 18.4773766,2.53506198 19,1.77567086" id="Fill-1"></path>
                </g>
            </g>
        </g>
    </g>
</svg>