<?xml version="1.0" encoding="utf-8"?>
<!-- Generator: Adobe Illustrator 28.2.0, SVG Export Plug-In . SVG Version: 6.00 Build 0)  -->
<svg version="1.1" id="Layer_1" xmlns="http://www.w3.org/2000/svg" xmlns:xlink="http://www.w3.org/1999/xlink" x="0px" y="0px"
	 viewBox="0 0 1124 300" style="enable-background:new 0 0 1124 300;" xml:space="preserve">
<style type="text/css">
	.st0{fill:#FFFFFF;}
</style>
<path class="st0" d="M534.8,198.8c-10.2,0-19.6-2.6-28-7.9c-8.4-5.3-15.1-12.3-20.1-21.2c-5-8.9-7.5-18.7-7.5-29.4
	c0-8.2,1.4-15.8,4.3-22.9c2.9-7.1,6.9-13.3,12-18.7c5.1-5.4,11-9.6,17.7-12.6s13.9-4.6,21.6-4.6c8.5,0,16.4,1.8,23.5,5.3
	s13.2,8.4,18.2,14.6c5,6.2,8.7,13.3,11.1,21.4s3.1,16.6,2.1,25.6H504c1,5.1,2.8,9.7,5.6,13.8c2.8,4.1,6.3,7.4,10.7,9.7
	c4.3,2.4,9.2,3.6,14.5,3.7c5.6,0,10.8-1.4,15.4-4.2c4.6-2.8,8.4-6.7,11.4-11.7l23.5,5.4c-4.4,9.9-11.2,17.9-20.1,24.2
	C556,195.7,545.9,198.8,534.8,198.8z M503.2,130.8h63.2c-0.7-5.3-2.6-10.2-5.6-14.5c-3-4.3-6.7-7.8-11.2-10.3
	c-4.5-2.6-9.4-3.8-14.7-3.8c-5.3,0-10.1,1.3-14.6,3.8c-4.5,2.5-8.2,6-11.1,10.3C506.1,120.5,504.2,125.4,503.2,130.8z M665.8,198.8
	c-10.2,0-19.6-2.6-28-7.9c-8.4-5.3-15.1-12.3-20.1-21.2c-5-8.9-7.5-18.7-7.5-29.4c0-8.2,1.4-15.8,4.3-22.9c2.9-7.1,6.9-13.3,12-18.7
	c5.1-5.4,11-9.6,17.7-12.6s13.9-4.6,21.6-4.6c8.5,0,16.4,1.8,23.5,5.3s13.2,8.4,18.2,14.6c5,6.2,8.7,13.3,11.1,21.4
	s3.1,16.6,2.1,25.6H635c1,5.1,2.8,9.7,5.6,13.8c2.8,4.1,6.3,7.4,10.7,9.7c4.3,2.4,9.2,3.6,14.5,3.7c5.6,0,10.8-1.4,15.4-4.2
	c4.6-2.8,8.4-6.7,11.4-11.7l23.5,5.4c-4.4,9.9-11.2,17.9-20.1,24.2C687,195.7,676.9,198.8,665.8,198.8z M634.2,130.8h63.2
	c-0.7-5.3-2.6-10.2-5.6-14.5c-3-4.3-6.7-7.8-11.2-10.3c-4.5-2.6-9.4-3.8-14.7-3.8c-5.3,0-10.1,1.3-14.6,3.8
	c-4.5,2.5-8.2,6-11.1,10.3C637.1,120.5,635.2,125.4,634.2,130.8z M834.5,29.1h23.1v166.8h-23.1v-16.3c-3.6,5.8-8.4,10.4-14.2,14
	c-5.9,3.5-12.7,5.3-20.6,5.3c-8.1,0-15.6-1.5-22.7-4.6c-7-3-13.3-7.2-18.6-12.6c-5.4-5.4-9.6-11.6-12.6-18.6c-3-7-4.6-14.6-4.6-22.7
	c0-8.1,1.5-15.7,4.6-22.7c3-7.1,7.2-13.3,12.6-18.7c5.4-5.4,11.6-9.6,18.6-12.6c7-3,14.6-4.6,22.7-4.6c7.9,0,14.7,1.8,20.6,5.3
	c5.9,3.5,10.6,8.1,14.2,13.8V29.1z M799.9,176.5c6.5,0,12.2-1.6,17.1-4.8c4.9-3.2,8.7-7.6,11.4-13.1c2.7-5.5,4.1-11.6,4.1-18.2
	c0-6.7-1.4-12.9-4.1-18.4s-6.5-9.8-11.4-13.1c-4.9-3.2-10.5-4.8-17.1-4.8c-6.4,0-12.3,1.6-17.6,4.9c-5.3,3.3-9.5,7.6-12.7,13.1
	c-3.2,5.5-4.7,11.6-4.7,18.2c0,6.7,1.6,12.8,4.8,18.3c3.2,5.5,7.5,9.8,12.8,13C787.8,174.9,793.6,176.5,799.9,176.5z M919.6,59.5
	v25.2H951v23.1h-31.4v88.1h-23.1v-88.1h-13.2V84.7h13.2V59.5c0-6.1,1.5-11.6,4.5-16.6c3-5,7-9,12-12c5-3,10.6-4.5,16.7-4.5
	c4.4,0,8.8,0.9,13,2.7c4.2,1.8,8,4.5,11.3,8.2l-16.6,16.3c-0.8-1.3-1.9-2.4-3.4-3.1c-1.4-0.7-2.9-1.1-4.4-1.1c-2.7,0-5.1,1-7.1,2.9
	C920.6,54.4,919.6,56.7,919.6,59.5z M1100.9,195.9V29.1h23.1v166.8H1100.9z M406.9,81.7c-27.6,0-50.1,22.4-50.1,50.1h0v64.1H380
	v-64.1c0-14.9,12.1-26.9,26.9-26.9c14.9,0,26.9,12.1,26.9,26.9c0,0,0,0,0,0v64.1h23.1v-64.1C456.9,104.2,434.5,81.7,406.9,81.7z
	 M1071.5,148.8V84.6h-23.1v64.1c0,0,0,0,0,0c0,14.9-12.1,26.9-26.9,26.9c-14.9,0-26.9-12.1-26.9-26.9V84.6h-23.1v64.1h0
	c0,27.6,22.4,50.1,50.1,50.1C1049.1,198.8,1071.5,176.4,1071.5,148.8z M150,300C67.3,300,0,232.7,0,150S67.3,0,150,0
	s150,67.3,150,150S232.7,300,150,300z M150,5.5C70.3,5.5,5.5,70.3,5.5,150S70.3,294.5,150,294.5S294.5,229.7,294.5,150
	S229.7,5.5,150,5.5z M150,15.6C75.8,15.6,15.6,75.8,15.6,150c0,74.2,60.2,134.4,134.4,134.4S284.4,224.2,284.4,150
	C284.4,75.8,224.2,15.6,150,15.6z M200.1,196h-23.1v-64.1c0,0,0,0,0,0c0-14.9-12.1-26.9-26.9-26.9c-14.9,0-26.9,12.1-26.9,26.9V196
	H99.9v-64.1h0c0-27.6,22.4-50.1,50.1-50.1c27.6,0,50.1,22.4,50.1,50.1V196z M637.9,282.4V233h16.3c3.4,0,6.6,0.6,9.6,1.9
	c3,1.3,5.6,3.1,7.9,5.3c2.3,2.3,4,4.9,5.3,7.9c1.3,3,1.9,6.2,1.9,9.6c0,3.4-0.6,6.6-1.9,9.6c-1.3,3-3.1,5.6-5.3,7.9
	c-2.3,2.3-4.9,4-7.9,5.3c-3,1.3-6.2,1.9-9.6,1.9H637.9z M642.9,277.4h11.4c2.7,0,5.3-0.5,7.7-1.5c2.4-1,4.5-2.4,6.3-4.2
	c1.8-1.8,3.2-3.9,4.2-6.3c1-2.4,1.5-4.9,1.5-7.7c0-2.7-0.5-5.3-1.5-7.7c-1-2.4-2.4-4.5-4.3-6.3c-1.8-1.8-3.9-3.2-6.3-4.2
	c-2.4-1-4.9-1.5-7.6-1.5h-11.4V277.4z M703.2,283.3c-3.2,0-6.2-0.8-8.9-2.5c-2.7-1.7-4.8-3.9-6.4-6.7c-1.6-2.8-2.4-5.9-2.4-9.3
	c0-2.6,0.5-5,1.4-7.2c0.9-2.2,2.2-4.2,3.8-5.9c1.6-1.7,3.5-3,5.6-4c2.1-1,4.4-1.4,6.8-1.4c3.2,0,6.2,0.8,8.9,2.5
	c2.7,1.7,4.8,3.9,6.4,6.7c1.6,2.8,2.4,5.9,2.4,9.4c0,2.6-0.5,5-1.4,7.2c-0.9,2.2-2.2,4.2-3.8,5.9c-1.6,1.7-3.5,3-5.6,4
	C707.9,282.8,705.6,283.3,703.2,283.3z M703.2,278.4c2.4,0,4.6-0.6,6.5-1.9c1.9-1.3,3.4-2.9,4.5-5c1.1-2.1,1.7-4.3,1.7-6.7
	c0-2.5-0.6-4.7-1.7-6.8c-1.1-2.1-2.7-3.7-4.6-5c-1.9-1.2-4.1-1.9-6.4-1.9c-2.4,0-4.6,0.6-6.5,1.9c-1.9,1.3-3.4,2.9-4.5,5
	s-1.7,4.3-1.7,6.8c0,2.5,0.6,4.8,1.7,6.9c1.2,2.1,2.7,3.7,4.6,4.9C698.8,277.7,700.9,278.4,703.2,278.4z M732,240.9
	c-0.8,0-1.5-0.3-2-0.8c-0.6-0.5-0.8-1.2-0.8-2c0-0.8,0.3-1.5,0.8-2c0.6-0.5,1.2-0.8,2-0.8c0.8,0,1.4,0.3,2,0.8
	c0.6,0.5,0.8,1.2,0.8,2c0,0.8-0.3,1.5-0.8,2C733.5,240.7,732.8,240.9,732,240.9z M729.5,247.1h4.9v35.3h-4.9V247.1z M776.1,260.5
	v21.8h-4.9v-20.8c0-1.9-0.5-3.7-1.4-5.3c-0.9-1.6-2.2-2.8-3.8-3.8c-1.6-0.9-3.3-1.4-5.3-1.4c-1.9,0-3.7,0.5-5.2,1.4
	c-1.6,0.9-2.9,2.2-3.8,3.8c-0.9,1.6-1.4,3.3-1.4,5.3v20.8h-4.9v-35.3h4.9v4.9c1.2-1.8,2.9-3.2,4.9-4.3c2-1.1,4.2-1.6,6.5-1.6
	c2.7,0,5.1,0.6,7.3,1.9c2.2,1.3,3.9,3,5.2,5.2C775.4,255.5,776.1,257.9,776.1,260.5z M813.6,247.1h4.9v36.6c0,2.3-0.5,4.4-1.5,6.3
	c-1,2-2.3,3.7-3.9,5.2c-1.7,1.5-3.5,2.7-5.7,3.5c-2.1,0.8-4.3,1.3-6.6,1.3c-2.4,0-4.8-0.6-7.1-1.7c-2.3-1.1-4.3-2.6-5.9-4.5
	c-1.7-1.9-2.9-3.9-3.6-6.2l4.6-2.1c0.4,1.8,1.3,3.4,2.5,4.8c1.2,1.4,2.7,2.6,4.4,3.4c1.7,0.8,3.4,1.3,5.2,1.3c1.6,0,3.2-0.3,4.7-0.9
	c1.5-0.6,2.9-1.4,4.1-2.4c1.2-1,2.2-2.2,2.9-3.6c0.7-1.4,1.1-2.8,1.1-4.4v-7.8c-1.2,2.2-2.9,4-5,5.4c-2.1,1.4-4.5,2-7.2,2
	c-2.5,0-4.8-0.5-7-1.4c-2.2-1-4.1-2.3-5.7-4c-1.6-1.7-2.9-3.7-3.9-5.9c-0.9-2.2-1.4-4.6-1.4-7.2c0-2.6,0.5-5,1.4-7.2
	c0.9-2.2,2.2-4.2,3.9-5.9c1.6-1.7,3.6-3,5.7-4c2.2-1,4.5-1.4,7-1.4c2.8,0,5.2,0.7,7.2,2c2.1,1.4,3.7,3.1,5,5.4V247.1z M801.4,278.5
	c2.4,0,4.6-0.6,6.3-1.9c1.8-1.3,3.1-3,4.1-5c1-2.1,1.4-4.4,1.4-6.8c0-2.5-0.5-4.8-1.5-6.9c-1-2.1-2.4-3.7-4.1-5
	c-1.8-1.3-3.9-1.9-6.3-1.9s-4.6,0.6-6.5,1.8c-2,1.2-3.5,2.9-4.7,5c-1.2,2.1-1.7,4.4-1.7,6.9c0,2.5,0.6,4.8,1.8,6.9
	c1.2,2.1,2.7,3.7,4.7,5C796.9,277.9,799,278.5,801.4,278.5z M866.2,246.1c3.4,0,6.6,0.8,9.4,2.5c2.8,1.7,5,3.9,6.7,6.7
	c1.7,2.8,2.5,5.9,2.5,9.4c0,2.6-0.5,5-1.4,7.2s-2.3,4.2-4,5.9c-1.7,1.7-3.7,3-5.9,4c-2.2,1-4.6,1.4-7.2,1.4c-2.9,0-5.4-0.7-7.5-2.1
	c-2.1-1.4-3.8-3.2-5-5.4v6.6h-4.9v-52.9h4.9v24.2c1.2-2.2,2.9-4,5-5.4C860.7,246.8,863.2,246.1,866.2,246.1z M866.1,278.5
	c2.5,0,4.8-0.6,6.8-1.8c2-1.2,3.7-2.9,4.9-5c1.2-2.1,1.8-4.4,1.8-6.9c0-2.6-0.6-4.9-1.9-7s-2.9-3.7-5-5c-2.1-1.2-4.3-1.8-6.8-1.8
	c-2.5,0-4.6,0.6-6.5,1.9c-1.8,1.2-3.2,2.9-4.2,5c-1,2.1-1.5,4.4-1.5,6.9c0,2.6,0.5,4.9,1.5,7c1,2.1,2.4,3.7,4.2,5
	C861.5,277.8,863.6,278.5,866.1,278.5z M917.6,247.1h5.2L903.6,300h-5.3l6.4-17.6l-12.7-35.3h5.4l9.7,28.5L917.6,247.1z
	 M951.6,282.4V233h16.7c2.4,0,4.6,0.5,6.5,1.5c2,1,3.5,2.4,4.7,4.3c1.2,1.9,1.7,4.1,1.7,6.8c0,1.5-0.3,2.9-0.8,4.3
	c-0.5,1.4-1.2,2.5-2.1,3.5c-0.9,1-1.8,1.6-2.8,1.8c1.5,0.4,2.7,1,3.8,2c1.1,0.9,1.9,2,2.6,3.3c0.7,1.3,1.2,2.6,1.5,4
	c0.3,1.4,0.5,2.8,0.5,4.1c0,2.8-0.6,5.2-1.8,7.3c-1.2,2.1-2.8,3.7-4.8,4.9s-4.3,1.7-6.7,1.7H951.6z M956.5,253.3h11.3
	c2.3,0,4.3-0.7,6-2c1.7-1.4,2.5-3.3,2.5-5.8c0-2.7-0.8-4.8-2.5-6.1c-1.7-1.3-3.6-2-6-2h-11.3V253.3z M956.5,278h13.5
	c1.7,0,3.3-0.4,4.7-1.3c1.4-0.9,2.5-2.1,3.3-3.7c0.8-1.6,1.3-3.3,1.3-5.3c0-1.7-0.4-3.4-1.3-4.9c-0.8-1.5-2-2.8-3.3-3.7
	c-1.4-1-3-1.4-4.7-1.4h-13.5V278z M1008.8,283.3c-3.2,0-6.2-0.8-8.9-2.5c-2.7-1.7-4.8-3.9-6.4-6.7c-1.6-2.8-2.4-5.9-2.4-9.3
	c0-2.6,0.5-5,1.4-7.2c0.9-2.2,2.2-4.2,3.8-5.9c1.6-1.7,3.5-3,5.6-4c2.1-1,4.4-1.4,6.8-1.4c2.6,0,5,0.5,7.2,1.6
	c2.2,1,4.1,2.5,5.7,4.3c1.6,1.9,2.8,4,3.6,6.5c0.8,2.5,1.1,5.2,1,8.1h-29.9c0.3,2.2,1,4.2,2.1,6s2.6,3.2,4.4,4.2
	c1.8,1,3.7,1.5,5.9,1.6c2.4,0,4.5-0.6,6.4-1.8c1.9-1.2,3.4-2.9,4.6-5l5,1.2c-1.4,3.1-3.5,5.7-6.4,7.7
	C1015.5,282.3,1012.4,283.3,1008.8,283.3z M996.3,262.6h25.1c-0.2-2.2-0.8-4.2-2-6c-1.2-1.8-2.7-3.3-4.5-4.4c-1.8-1.1-3.8-1.6-6-1.6
	c-2.2,0-4.2,0.5-6,1.6c-1.8,1.1-3.3,2.5-4.4,4.3C997.2,258.4,996.5,260.4,996.3,262.6z M1037.6,240.9c-0.8,0-1.5-0.3-2-0.8
	c-0.6-0.5-0.8-1.2-0.8-2c0-0.8,0.3-1.5,0.8-2c0.6-0.5,1.2-0.8,2-0.8c0.8,0,1.4,0.3,2,0.8c0.6,0.5,0.8,1.2,0.8,2c0,0.8-0.3,1.5-0.8,2
	C1039.1,240.7,1038.4,240.9,1037.6,240.9z M1035.1,247.1h4.9v35.3h-4.9V247.1z M1081.6,260.5v21.8h-4.9v-20.8c0-1.9-0.5-3.7-1.4-5.3
	c-0.9-1.6-2.2-2.8-3.8-3.8c-1.6-0.9-3.3-1.4-5.3-1.4c-1.9,0-3.7,0.5-5.2,1.4c-1.6,0.9-2.9,2.2-3.8,3.8c-0.9,1.6-1.4,3.3-1.4,5.3
	v20.8h-4.9v-35.3h4.9v4.9c1.2-1.8,2.9-3.2,4.9-4.3c2-1.1,4.2-1.6,6.5-1.6c2.7,0,5.1,0.6,7.3,1.9c2.2,1.3,3.9,3,5.2,5.2
	C1081,255.5,1081.6,257.9,1081.6,260.5z M1119.1,247.1h4.9v36.6c0,2.3-0.5,4.4-1.5,6.3c-1,2-2.3,3.7-3.9,5.2
	c-1.7,1.5-3.5,2.7-5.7,3.5c-2.1,0.8-4.3,1.3-6.6,1.3c-2.4,0-4.8-0.6-7.1-1.7s-4.3-2.6-5.9-4.5c-1.7-1.9-2.9-3.9-3.6-6.2l4.6-2.1
	c0.4,1.8,1.3,3.4,2.5,4.8c1.2,1.4,2.7,2.6,4.4,3.4c1.7,0.8,3.4,1.3,5.2,1.3c1.6,0,3.2-0.3,4.7-0.9c1.5-0.6,2.9-1.4,4.1-2.4
	c1.2-1,2.2-2.2,2.9-3.6c0.7-1.4,1.1-2.8,1.1-4.4v-7.8c-1.2,2.2-2.9,4-5,5.4c-2.1,1.4-4.5,2-7.2,2c-2.5,0-4.8-0.5-7-1.4
	c-2.2-1-4.1-2.3-5.7-4c-1.6-1.7-2.9-3.7-3.9-5.9c-0.9-2.2-1.4-4.6-1.4-7.2c0-2.6,0.5-5,1.4-7.2c0.9-2.2,2.2-4.2,3.9-5.9
	c1.6-1.7,3.6-3,5.7-4c2.2-1,4.5-1.4,7-1.4c2.8,0,5.2,0.7,7.2,2c2.1,1.4,3.7,3.1,5,5.4V247.1z M1106.9,278.5c2.4,0,4.6-0.6,6.3-1.9
	c1.8-1.3,3.1-3,4.1-5c1-2.1,1.4-4.4,1.4-6.8c0-2.5-0.5-4.8-1.5-6.9c-1-2.1-2.4-3.7-4.1-5c-1.8-1.3-3.9-1.9-6.3-1.9
	c-2.4,0-4.6,0.6-6.5,1.8c-2,1.2-3.5,2.9-4.7,5c-1.2,2.1-1.7,4.4-1.7,6.9c0,2.5,0.6,4.8,1.8,6.9s2.7,3.7,4.7,5
	C1102.4,277.9,1104.6,278.5,1106.9,278.5z"/>
</svg>
