<?xml version="1.0" encoding="UTF-8"?>
<svg id="Layer_1" data-name="Layer 1" xmlns="http://www.w3.org/2000/svg" viewBox="0 0 500 678.27">
  <defs>
    <style>
      .cls-1 {
        fill: #fff;
      }

      .cls-1, .cls-2 {
        stroke-width: 0px;
      }

      .cls-2 {
        fill: #00a884;
      }
    </style>
  </defs>
  <g>
    <path class="cls-2" d="M120.78,678.27c-6.43,0-12.29-1.65-17.58-4.96-5.29-3.31-9.51-7.74-12.65-13.31-3.15-5.57-4.72-11.73-4.72-18.48,0-5.12.91-9.91,2.73-14.36,1.82-4.45,4.32-8.36,7.51-11.74,3.19-3.38,6.91-6.02,11.15-7.93,4.24-1.91,8.76-2.87,13.56-2.87,5.36,0,10.27,1.11,14.75,3.32,4.47,2.21,8.29,5.26,11.46,9.15,3.17,3.89,5.5,8.36,6.99,13.42,1.49,5.06,1.93,10.43,1.33,16.11h-53.88c.61,3.21,1.78,6.12,3.53,8.7,1.75,2.58,3.98,4.62,6.71,6.11,2.72,1.49,5.77,2.26,9.12,2.31,3.54,0,6.77-.89,9.68-2.66,2.91-1.77,5.3-4.22,7.16-7.34l14.75,3.42c-2.8,6.2-7.01,11.26-12.65,15.2-5.64,3.94-11.95,5.91-18.94,5.91ZM100.93,635.5h39.7c-.47-3.36-1.64-6.4-3.53-9.12-1.89-2.73-4.24-4.89-7.06-6.5-2.82-1.61-5.91-2.41-9.26-2.41s-6.37.79-9.19,2.38c-2.82,1.59-5.15,3.74-6.99,6.47-1.84,2.72-3.07,5.79-3.67,9.19Z"/>
    <path class="cls-2" d="M203.11,678.27c-6.43,0-12.29-1.65-17.58-4.96-5.29-3.31-9.51-7.74-12.65-13.31-3.15-5.57-4.72-11.73-4.72-18.48,0-5.12.91-9.91,2.73-14.36s4.32-8.36,7.51-11.74c3.19-3.38,6.91-6.02,11.15-7.93,4.24-1.91,8.76-2.87,13.56-2.87,5.36,0,10.27,1.11,14.75,3.32,4.47,2.21,8.29,5.26,11.46,9.15,3.17,3.89,5.5,8.36,6.99,13.42,1.49,5.06,1.93,10.43,1.33,16.11h-53.88c.61,3.21,1.78,6.12,3.53,8.7,1.75,2.58,3.98,4.62,6.71,6.11,2.72,1.49,5.77,2.26,9.12,2.31,3.54,0,6.77-.89,9.68-2.66,2.91-1.77,5.3-4.22,7.16-7.34l14.75,3.42c-2.8,6.2-7.01,11.26-12.65,15.2-5.64,3.94-11.95,5.91-18.94,5.91ZM183.26,635.5h39.7c-.47-3.36-1.64-6.4-3.53-9.12-1.89-2.73-4.24-4.89-7.06-6.5-2.82-1.61-5.91-2.41-9.26-2.41s-6.37.79-9.19,2.38c-2.82,1.59-5.15,3.74-6.99,6.47-1.84,2.72-3.07,5.79-3.67,9.19Z"/>
    <path class="cls-2" d="M309.13,571.62h14.54v104.83h-14.54v-10.27c-2.28,3.63-5.27,6.56-8.95,8.77-3.68,2.21-7.99,3.32-12.93,3.32s-9.83-.96-14.26-2.87c-4.43-1.91-8.33-4.55-11.71-7.93-3.38-3.38-6.02-7.28-7.93-11.71-1.91-4.43-2.87-9.18-2.87-14.26s.96-9.84,2.87-14.29c1.91-4.45,4.55-8.36,7.93-11.74,3.38-3.38,7.28-6.02,11.71-7.93,4.43-1.91,9.18-2.86,14.26-2.86s9.25,1.11,12.93,3.32c3.68,2.21,6.66,5.12,8.95,8.7v-45.08ZM287.39,664.22c4.1,0,7.69-1.01,10.76-3.04,3.07-2.03,5.46-4.76,7.16-8.21,1.7-3.45,2.55-7.27,2.55-11.46s-.86-8.08-2.59-11.53-4.11-6.19-7.16-8.21c-3.05-2.03-6.63-3.04-10.73-3.04s-7.75,1.03-11.08,3.08c-3.33,2.05-5.99,4.8-7.97,8.25-1.98,3.45-2.97,7.27-2.97,11.46s1.01,8.07,3.04,11.5c2.03,3.42,4.7,6.15,8.04,8.18,3.33,2.03,6.98,3.04,10.94,3.04Z"/>
    <path class="cls-2" d="M362.59,590.7v15.86h19.71v14.54h-19.71v55.35h-14.54v-55.35h-8.32v-14.54h8.32v-15.86c0-3.82.93-7.3,2.8-10.45,1.86-3.14,4.37-5.65,7.51-7.51,3.14-1.86,6.65-2.8,10.52-2.8,2.8,0,5.52.56,8.18,1.68,2.66,1.12,5.03,2.84,7.13,5.17l-10.41,10.27c-.51-.84-1.22-1.48-2.13-1.92-.91-.44-1.83-.66-2.76-.66-1.72,0-3.2.61-4.44,1.82-1.24,1.21-1.85,2.68-1.85,4.4Z"/>
    <path class="cls-2" d="M476.5,676.45v-104.83h14.54v104.83h-14.54Z"/>
    <path class="cls-2" d="M40.41,604.69c-17.37,0-31.45,14.08-31.45,31.45h0v40.31h14.54v-40.31c0-9.34,7.57-16.91,16.91-16.91s16.92,7.57,16.92,16.91c0,0,0,0,0,0v40.31h14.54v-40.31c0-17.37-14.08-31.45-31.45-31.45Z"/>
    <path class="cls-2" d="M426.6,678.27c-17.37,0-31.45-14.08-31.45-31.45h0v-40.31h14.54v40.31c0,9.34,7.57,16.91,16.91,16.91s16.92-7.57,16.92-16.91c0,0,0,0,0,0v-40.31h14.54v40.31c0,17.37-14.08,31.45-31.45,31.45Z"/>
  </g>
  <g>
    <circle class="cls-2" cx="250" cy="250" r="223.94"/>
    <path class="cls-2" d="M250,500C112.15,500,0,387.85,0,250S112.15,0,250,0s250,112.15,250,250-112.15,250-250,250ZM250,9.09C117.16,9.09,9.09,117.16,9.09,250s108.07,240.91,240.91,240.91,240.91-108.07,240.91-240.91S382.84,9.09,250,9.09Z"/>
    <path class="cls-1" d="M250,136.33c-46.07,0-83.42,37.35-83.42,83.42h0v106.92h38.56v-106.92c0-24.78,20.09-44.86,44.86-44.86s44.87,20.08,44.87,44.86c0,0,0,0,0,0v106.91h38.56v-106.92c0-46.08-37.35-83.42-83.42-83.42Z"/>
  </g>
</svg>