<?xml version="1.0" encoding="UTF-8"?>
<svg id="Layer_1" data-name="Layer 1" xmlns="http://www.w3.org/2000/svg" viewBox="0 0 368.58 500">
  <defs>
    <style>
      .cls-1 {
        fill: #fff;
        stroke-width: 0px;
      }
    </style>
  </defs>
  <path class="cls-1" d="M89.03,500c-4.74,0-9.06-1.22-12.96-3.66-3.9-2.44-7.01-5.71-9.33-9.81-2.32-4.1-3.48-8.65-3.48-13.63,0-3.78.67-7.31,2.01-10.59,1.34-3.28,3.19-6.16,5.54-8.66,2.35-2.49,5.09-4.44,8.22-5.85,3.12-1.41,6.46-2.11,9.99-2.11,3.95,0,7.57.82,10.87,2.45,3.3,1.63,6.11,3.88,8.45,6.75,2.34,2.87,4.05,6.16,5.15,9.89,1.1,3.73,1.43,7.69.98,11.88h-39.72c.45,2.37,1.31,4.51,2.6,6.42,1.29,1.91,2.94,3.41,4.95,4.51,2.01,1.1,4.25,1.67,6.72,1.7,2.61,0,4.99-.65,7.14-1.96,2.15-1.3,3.91-3.11,5.28-5.41l10.87,2.52c-2.06,4.57-5.17,8.3-9.33,11.21-4.16,2.9-8.81,4.35-13.96,4.35ZM74.4,468.47h29.26c-.34-2.47-1.21-4.71-2.6-6.72-1.39-2.01-3.13-3.61-5.2-4.79-2.08-1.18-4.35-1.78-6.83-1.78s-4.7.59-6.77,1.75c-2.08,1.17-3.8,2.76-5.15,4.77-1.36,2.01-2.26,4.27-2.7,6.77ZM149.72,500c-4.74,0-9.06-1.22-12.96-3.66-3.9-2.44-7.01-5.71-9.33-9.81-2.32-4.1-3.48-8.65-3.48-13.63,0-3.78.67-7.31,2.01-10.59,1.34-3.28,3.19-6.16,5.54-8.66,2.35-2.49,5.09-4.44,8.22-5.85,3.12-1.41,6.46-2.11,9.99-2.11,3.95,0,7.57.82,10.87,2.45,3.3,1.63,6.11,3.88,8.45,6.75,2.34,2.87,4.05,6.16,5.15,9.89,1.1,3.73,1.43,7.69.98,11.88h-39.72c.45,2.37,1.31,4.51,2.6,6.42,1.29,1.91,2.94,3.41,4.95,4.51,2.01,1.1,4.25,1.67,6.72,1.7,2.61,0,4.99-.65,7.14-1.96,2.15-1.3,3.91-3.11,5.28-5.41l10.87,2.52c-2.06,4.57-5.17,8.3-9.33,11.21-4.16,2.9-8.81,4.35-13.96,4.35ZM135.09,468.47h29.26c-.34-2.47-1.21-4.71-2.6-6.72-1.39-2.01-3.13-3.61-5.2-4.79-2.08-1.18-4.35-1.78-6.83-1.78s-4.7.59-6.77,1.75c-2.08,1.17-3.8,2.76-5.15,4.77-1.36,2.01-2.26,4.27-2.7,6.77ZM227.88,421.38h10.72v77.28h-10.72v-7.57c-1.68,2.68-3.88,4.83-6.59,6.47-2.71,1.63-5.89,2.45-9.53,2.45s-7.25-.7-10.51-2.11c-3.26-1.41-6.14-3.36-8.63-5.85s-4.44-5.37-5.85-8.63c-1.41-3.26-2.11-6.76-2.11-10.51s.7-7.26,2.11-10.54c1.41-3.28,3.36-6.16,5.85-8.66,2.49-2.49,5.37-4.44,8.63-5.85,3.26-1.41,6.77-2.11,10.51-2.11s6.82.82,9.53,2.45c2.71,1.63,4.91,3.77,6.59,6.42v-33.23ZM211.85,489.65c3.02,0,5.67-.75,7.93-2.24s4.03-3.51,5.28-6.05c1.25-2.54,1.88-5.36,1.88-8.45s-.64-5.96-1.91-8.5c-1.27-2.54-3.03-4.56-5.28-6.05-2.25-1.49-4.89-2.24-7.91-2.24s-5.71.76-8.16,2.27c-2.46,1.51-4.41,3.54-5.87,6.08-1.46,2.54-2.19,5.36-2.19,8.45s.75,5.95,2.24,8.48c1.49,2.52,3.47,4.53,5.92,6.03,2.45,1.49,5.14,2.24,8.06,2.24ZM267.29,435.45v11.69h14.53v10.72h-14.53v40.8h-10.72v-40.8h-6.13v-10.72h6.13v-11.69c0-2.82.69-5.38,2.06-7.7,1.37-2.32,3.22-4.16,5.54-5.54,2.32-1.37,4.9-2.06,7.75-2.06,2.06,0,4.07.41,6.03,1.24,1.96.83,3.71,2.1,5.26,3.81l-7.68,7.57c-.38-.62-.9-1.09-1.57-1.42-.67-.33-1.35-.49-2.04-.49-1.27,0-2.36.45-3.27,1.34-.91.89-1.37,1.98-1.37,3.25ZM351.26,498.66v-77.28h10.72v77.28h-10.72ZM29.79,445.76c-12.8,0-23.18,10.38-23.18,23.19h0v29.71h10.72v-29.71c0-6.89,5.58-12.47,12.47-12.47s12.47,5.58,12.47,12.47c0,0,0,0,0,0v29.71h10.72v-29.71c0-12.81-10.38-23.19-23.19-23.19ZM337.66,476.81v-29.71h-10.72v29.71s0,0,0,0c0,6.89-5.58,12.47-12.47,12.47s-12.47-5.58-12.47-12.47v-29.71h-10.72v29.71h0c0,12.81,10.38,23.19,23.18,23.19s23.19-10.38,23.19-23.19ZM184.29,368.58C82.67,368.58,0,285.91,0,184.29S82.67,0,184.29,0s184.29,82.67,184.29,184.29-82.67,184.29-184.29,184.29ZM184.29,6.7C86.37,6.7,6.7,86.37,6.7,184.29s79.67,177.59,177.59,177.59,177.59-79.67,177.59-177.59S282.22,6.7,184.29,6.7ZM184.29,19.21C93.12,19.21,19.21,93.12,19.21,184.29s73.91,165.08,165.08,165.08,165.08-73.91,165.08-165.08S275.46,19.21,184.29,19.21ZM245.79,240.81h-28.42v-78.81s0,0,0,0c0-18.27-14.81-33.07-33.07-33.07s-33.07,14.81-33.07,33.07v78.81h-28.42v-78.81h0c0-33.97,27.53-61.5,61.5-61.5s61.5,27.53,61.5,61.5v78.81Z"/>
</svg>