<?xml version="1.0" encoding="UTF-8"?>
<svg id="Layer_1" data-name="Layer 1" xmlns="http://www.w3.org/2000/svg" viewBox="0 0 500 500">
  <defs>
    <style>
      .cls-1 {
        fill: #fff;
        stroke-width: 0px;
      }
    </style>
  </defs>
  <path class="cls-1" d="M250,500C112.15,500,0,387.85,0,250S112.15,0,250,0s250,112.15,250,250-112.15,250-250,250ZM250,9.09C117.16,9.09,9.09,117.16,9.09,250s108.07,240.91,240.91,240.91,240.91-108.07,240.91-240.91S382.84,9.09,250,9.09ZM250,26.06C126.32,26.06,26.06,126.32,26.06,250s100.26,223.94,223.94,223.94,223.94-100.26,223.94-223.94S373.68,26.06,250,26.06ZM333.42,326.67h-38.56v-106.91s0,0,0,0c0-24.78-20.09-44.86-44.87-44.86s-44.86,20.08-44.86,44.86v106.92h-38.56v-106.92h0c0-46.08,37.35-83.42,83.42-83.42s83.42,37.35,83.42,83.42v106.92Z"/>
</svg>